HIERARCHY
ROOT Hips
{
	OFFSET 0.00 0.00 0.00
	CHANNELS 6 Xposition Yposition Zposition Xrotation Yrotation Zrotation
	JOINT Spine
	{
		OFFSET 0.00000 7.06766 0.00000
		CHANNELS 3 Xrotation Yrotation Zrotation
		JOINT Head
		{
			OFFSET 0.00000 15.03989 0.00000
			CHANNELS 3 Xrotation Yrotation Zrotation
			End Site
			{
				OFFSET 0.00000 4.52755 0.00000
			}
		}
		JOINT LeftShoulder
		{
			OFFSET 0.00000 10.53037 0.00000
			CHANNELS 3 Xrotation Yrotation Zrotation
			JOINT LeftArm
			{
				OFFSET 7.02886 0.00000 0.00000
				CHANNELS 3 Xrotation Yrotation Zrotation
				JOINT LeftForeArm
				{
					OFFSET 10.79770 0.00000 0.00000
					CHANNELS 3 Yrotation Zrotation Xrotation
					JOINT LeftHand
					{
						OFFSET 7.90744 0.00000 0.00000
						CHANNELS 3 Xrotation Yrotation Zrotation
						JOINT LeftHandThumb1
						{
							OFFSET 0.00000 0.00000 0.00000
							CHANNELS 3 Xrotation Zrotation Yrotation
							End Site
							{
								OFFSET 0.00000 0.00000 3.93700
							}
						}
						End Site
						{
							OFFSET 3.93700 0.00000 0.00000
						}
					}
				}
			}
		}
		JOINT RightShoulder
		{
			OFFSET 0.00000 10.53037 0.00000
			CHANNELS 3 Xrotation Yrotation Zrotation
			JOINT RightArm
			{
				OFFSET -7.02886 0.00000 0.00000
				CHANNELS 3 Xrotation Yrotation Zrotation
				JOINT RightForeArm
				{
					OFFSET -10.79770 0.00000 0.00000
					CHANNELS 3 Yrotation Zrotation Xrotation
					JOINT RightHand
					{
						OFFSET -7.90744 0.00000 0.00000
						CHANNELS 3 Xrotation Yrotation Zrotation
						JOINT RightHandThumb1
						{
							OFFSET 0.00000 0.00000 0.00000
							CHANNELS 3 Xrotation Zrotation Yrotation
							End Site
							{
								OFFSET 0.00000 0.00000 3.93700
							}
						}
						End Site
						{
							OFFSET -3.93700 0.00000 0.00000
						}
					}
				}
			}
		}
	}
	JOINT LeftUpLeg
	{
		OFFSET 4.01300 0.00000 0.00000
		CHANNELS 3 Xrotation Yrotation Zrotation
		JOINT LeftLeg
		{
			OFFSET 0.00000 -16.89976 0.00000
			CHANNELS 3 Xrotation Yrotation Zrotation
			JOINT LeftFoot
			{
				OFFSET 0.00000 -17.38918 0.00000
				CHANNELS 3 Xrotation Yrotation Zrotation
				JOINT LeftToeBase
				{
					OFFSET 0.00000 -1.27456 4.75673
					CHANNELS 3 Xrotation Yrotation Zrotation
					End Site
					{
						OFFSET 0.00000 0.00000 2.95275
					}
				}
			}
		}
	}
	JOINT RightUpLeg
	{
		OFFSET -4.01300 0.00000 0.00000
		CHANNELS 3 Xrotation Yrotation Zrotation
		JOINT RightLeg
		{
			OFFSET 0.00000 -16.89976 0.00000
			CHANNELS 3 Xrotation Yrotation Zrotation
			JOINT RightFoot
			{
				OFFSET 0.00000 -17.38918 0.00000
				CHANNELS 3 Xrotation Yrotation Zrotation
				JOINT RightToeBase
				{
					OFFSET 0.00000 -1.27456 4.75673
					CHANNELS 3 Xrotation Yrotation Zrotation
					End Site
					{
						OFFSET 0.00000 0.00000 2.95275
					}
				}
			}
		}
	}
}
MOTION
Frames: 9
Frame Time: 0.008333
 19.9020 35.3383 -24.4460 175.3183 -5.2956 178.2488 -14.2463 0.4718 0.6980 6.9361 -3.9300 -0.0949 -35.3199 0.1061 18.0248 -1.7174 -3.3565 -5.5408 2.5280 0.0000 6.4556 1.2454 7.6577 -9.2656 33.1476 -0.0000 26.2537 3.6840 -14.2020 -12.4491 -42.9550 -2.1508 5.1726 5.9041 -0.0000 36.2207 1.5754 -8.1220 11.0160 32.8623 0.0000 -24.3270 5.7976 6.4354 1.7994 -6.2924 -0.0000 -0.0000 -21.0831 29.3203 7.2378 25.9423 -0.0000 -0.0000 5.5553 -7.1028 1.4848 -3.2973 -0.0000 -0.0000 -20.4741 -29.5942 -2.0323 22.5431 0.0000 0.0000
 19.9026 35.3379 -24.4471 175.3332 -5.2915 178.2584 -14.2289 0.4701 0.6998 6.9490 -3.9216 -0.1110 -35.3169 0.1206 18.0275 -1.7338 -3.3580 -5.5614 2.5262 0.0000 6.4886 1.2444 7.6629 -9.2525 33.1476 -0.0000 26.2537 3.6716 -14.2137 -12.4369 -42.9549 -2.1267 5.1700 5.8781 -0.0000 36.1869 1.5692 -8.0702 11.0417 32.8623 0.0000 -24.3270 5.8063 6.4495 1.7920 -6.2752 -0.0000 -0.0000 -21.0877 29.3051 7.2385 25.9409 0.0000 -0.0000 5.5689 -7.0918 1.4773 -3.2956 -0.0000 -0.0000 -20.4852 -29.5991 -2.0493 22.5528 0.0000 -0.0000
 19.9041 35.3374 -24.4487 175.3541 -5.2981 178.2632 -14.2062 0.4605 0.7083 6.9617 -3.9232 -0.1493 -35.3141 0.1269 18.0122 -1.7078 -3.3599 -5.5626 2.5285 0.0000 6.4714 1.2500 7.6885 -9.2628 33.1476 -0.0000 26.2537 3.6668 -14.2199 -12.4428 -42.9285 -2.1299 5.1769 5.8514 -0.0000 36.1770 1.5700 -8.0913 11.0192 32.8623 0.0000 -24.3270 5.8308 6.4267 1.7938 -6.2767 -0.0000 -0.0000 -21.0873 29.3224 7.2138 25.9405 -0.0000 0.0000 5.5929 -7.0972 1.4773 -3.2955 -0.0000 -0.0000 -20.4916 -29.5963 -2.0488 22.5245 -0.0000 0.0000
 19.9050 35.3369 -24.4501 175.3738 -5.2954 178.2642 -14.1804 0.4484 0.7225 6.9663 -3.9053 -0.1688 -35.3084 0.1449 18.0109 -1.7160 -3.3542 -5.5707 2.5356 0.0000 6.4939 1.2485 7.6815 -9.2605 33.1476 -0.0000 26.2537 3.6686 -14.2294 -12.4450 -42.9320 -2.1346 5.1933 5.8650 -0.0000 36.1786 1.5753 -8.1044 11.0386 32.8623 0.0000 -24.3270 5.8413 6.4542 1.7968 -6.2569 0.0000 0.0000 -21.0991 29.2864 7.2425 25.9601 -0.0000 0.0000 5.6145 -7.0989 1.4796 -3.2935 0.0000 0.0000 -20.5043 -29.5786 -2.0643 22.5678 0.0000 -0.0000
 19.9063 35.3365 -24.4505 175.3859 -5.2889 178.2668 -14.1598 0.4365 0.7314 6.9674 -3.8986 -0.1853 -35.3102 0.1668 18.0156 -1.7016 -3.3574 -5.5756 2.5445 0.0000 6.5018 1.2470 7.6689 -9.2644 33.1476 -0.0000 26.2537 3.6902 -14.2401 -12.4361 -42.9240 -2.1254 5.2024 5.8316 -0.0000 36.1685 1.5664 -8.0673 11.0262 32.8623 0.0000 -24.3270 5.8526 6.4488 1.7989 -6.2517 -0.0000 -0.0000 -21.1060 29.2982 7.2410 25.9415 -0.0000 -0.0000 5.6258 -7.0882 1.4805 -3.2942 -0.0000 0.0000 -20.5111 -29.5828 -2.0619 22.5620 0.0000 -0.0000
 19.9081 35.3360 -24.4519 175.4060 -5.2816 178.2643 -14.1402 0.4346 0.7465 6.9869 -3.9019 -0.2000 -35.2989 0.1655 18.0028 -1.6749 -3.3373 -5.5644 2.5346 0.0000 6.4980 1.2546 7.6964 -9.2872 33.1476 -0.0000 26.2537 3.7000 -14.2466 -12.4416 -42.8984 -2.1328 5.2200 5.8089 -0.0000 36.1786 1.5649 -8.1022 10.9698 32.8623 0.0000 -24.3270 5.8785 6.4436 1.8063 -6.2580 -0.0000 -0.0000 -21.1118 29.3098 7.2347 25.9559 0.0000 -0.0000 5.6438 -7.0830 1.4868 -3.2863 -0.0000 -0.0000 -20.5050 -29.5972 -2.0378 22.4931 0.0000 0.0000
 19.9095 35.3356 -24.4531 175.4168 -5.2763 178.2647 -14.1267 0.4369 0.7541 6.9983 -3.9171 -0.2121 -35.2906 0.1769 18.0029 -1.6657 -3.3492 -5.5693 2.5564 0.0000 6.5149 1.2527 7.6840 -9.2881 33.1476 -0.0000 26.2537 3.7411 -14.2774 -12.4297 -42.8879 -2.1257 5.2357 5.7780 -0.0000 36.1731 1.5520 -8.0744 10.9178 32.8623 0.0000 -24.3270 5.8892 6.4466 1.8086 -6.2540 0.0000 0.0000 -21.1227 29.3113 7.2571 25.9438 0.0000 -0.0000 5.6528 -7.0971 1.4907 -3.2804 -0.0000 -0.0000 -20.5221 -29.5736 -2.0552 22.5097 -0.0000 0.0000
 19.9106 35.3355 -24.4539 175.4370 -5.2738 178.2663 -14.1034 0.4215 0.7637 7.0236 -3.9008 -0.2269 -35.2603 0.1917 17.9994 -1.6856 -3.3248 -5.5614 2.5444 0.0000 6.5296 1.2573 7.7009 -9.3020 33.1476 -0.0000 26.2537 3.7722 -14.3059 -12.3925 -42.8959 -2.0567 5.2278 5.7230 -0.0000 36.1121 1.5450 -8.0487 10.9037 32.8623 0.0000 -24.3270 5.9026 6.4688 1.8098 -6.2402 0.0000 0.0000 -21.1215 29.2865 7.2618 25.9453 0.0000 -0.0000 5.6696 -7.0987 1.4918 -3.2732 -0.0000 -0.0000 -20.5387 -29.5672 -2.0936 22.5749 0.0000 -0.0000
 19.9115 35.3350 -24.4544 175.4461 -5.2751 178.2684 -14.0893 0.4064 0.7657 7.0307 -3.9001 -0.2291 -35.2656 0.1994 18.0060 -1.6463 -3.3198 -5.5597 2.5441 0.0000 6.5118 1.2608 7.7246 -9.2988 33.1476 -0.0000 26.2537 3.7540 -14.3055 -12.3877 -42.8241 -2.0502 5.2231 5.7290 -0.0000 36.0316 1.5584 -8.0780 10.9572 32.8623 0.0000 -24.3270 5.9028 6.4666 1.8102 -6.2229 -0.0000 0.0000 -21.1420 29.2958 7.2675 25.9365 -0.0000 0.0000 5.6770 -7.1014 1.4919 -3.2664 0.0000 0.0000 -20.5384 -29.5597 -2.0757 22.5662 0.0000 0.0000
